<svg version="1.1" xmlns="http://www.w3.org/2000/svg" xmlns:xlink="http://www.w3.org/1999/xlink" width="790.17724609375" height="580"><defs/><g><text fill="#eeeeee" stroke="none" font-family="Arial" font-size="24px" font-style="normal" font-weight="normal" text-decoration="none" x="0" y="0">UNREGISTERED</text><text fill="#eeeeee" stroke="none" font-family="Arial" font-size="24px" font-style="normal" font-weight="normal" text-decoration="none" x="0" y="30">UNREGISTERED</text><text fill="#eeeeee" stroke="none" font-family="Arial" font-size="24px" font-style="normal" font-weight="normal" text-decoration="none" x="0" y="60">UNREGISTERED</text><text fill="#eeeeee" stroke="none" font-family="Arial" font-size="24px" font-style="normal" font-weight="normal" text-decoration="none" x="0" y="90">UNREGISTERED</text><text fill="#eeeeee" stroke="none" font-family="Arial" font-size="24px" font-style="normal" font-weight="normal" text-decoration="none" x="0" y="120">UNREGISTERED</text><text fill="#eeeeee" stroke="none" font-family="Arial" font-size="24px" font-style="normal" font-weight="normal" text-decoration="none" x="0" y="150">UNREGISTERED</text><text fill="#eeeeee" stroke="none" font-family="Arial" font-size="24px" font-style="normal" font-weight="normal" text-decoration="none" x="0" y="180">UNREGISTERED</text><text fill="#eeeeee" stroke="none" font-family="Arial" font-size="24px" font-style="normal" font-weight="normal" text-decoration="none" x="0" y="210">UNREGISTERED</text><text fill="#eeeeee" stroke="none" font-family="Arial" font-size="24px" font-style="normal" font-weight="normal" text-decoration="none" x="0" y="240">UNREGISTERED</text><text fill="#eeeeee" stroke="none" font-family="Arial" font-size="24px" font-style="normal" font-weight="normal" text-decoration="none" x="0" y="270">UNREGISTERED</text><text fill="#eeeeee" stroke="none" font-family="Arial" font-size="24px" font-style="normal" font-weight="normal" text-decoration="none" x="0" y="300">UNREGISTERED</text><text fill="#eeeeee" stroke="none" font-family="Arial" font-size="24px" font-style="normal" font-weight="normal" text-decoration="none" x="0" y="330">UNREGISTERED</text><text fill="#eeeeee" stroke="none" font-family="Arial" font-size="24px" font-style="normal" font-weight="normal" text-decoration="none" x="0" y="360">UNREGISTERED</text><text fill="#eeeeee" stroke="none" font-family="Arial" font-size="24px" font-style="normal" font-weight="normal" text-decoration="none" x="0" y="390">UNREGISTERED</text><text fill="#eeeeee" stroke="none" font-family="Arial" font-size="24px" font-style="normal" font-weight="normal" text-decoration="none" x="0" y="420">UNREGISTERED</text><text fill="#eeeeee" stroke="none" font-family="Arial" font-size="24px" font-style="normal" font-weight="normal" text-decoration="none" x="0" y="450">UNREGISTERED</text><text fill="#eeeeee" stroke="none" font-family="Arial" font-size="24px" font-style="normal" font-weight="normal" text-decoration="none" x="0" y="480">UNREGISTERED</text><text fill="#eeeeee" stroke="none" font-family="Arial" font-size="24px" font-style="normal" font-weight="normal" text-decoration="none" x="0" y="510">UNREGISTERED</text><text fill="#eeeeee" stroke="none" font-family="Arial" font-size="24px" font-style="normal" font-weight="normal" text-decoration="none" x="0" y="540">UNREGISTERED</text><text fill="#eeeeee" stroke="none" font-family="Arial" font-size="24px" font-style="normal" font-weight="normal" text-decoration="none" x="0" y="570">UNREGISTERED</text><text fill="#eeeeee" stroke="none" font-family="Arial" font-size="24px" font-style="normal" font-weight="normal" text-decoration="none" x="200" y="0">UNREGISTERED</text><text fill="#eeeeee" stroke="none" font-family="Arial" font-size="24px" font-style="normal" font-weight="normal" text-decoration="none" x="200" y="30">UNREGISTERED</text><text fill="#eeeeee" stroke="none" font-family="Arial" font-size="24px" font-style="normal" font-weight="normal" text-decoration="none" x="200" y="60">UNREGISTERED</text><text fill="#eeeeee" stroke="none" font-family="Arial" font-size="24px" font-style="normal" font-weight="normal" text-decoration="none" x="200" y="90">UNREGISTERED</text><text fill="#eeeeee" stroke="none" font-family="Arial" font-size="24px" font-style="normal" font-weight="normal" text-decoration="none" x="200" y="120">UNREGISTERED</text><text fill="#eeeeee" stroke="none" font-family="Arial" font-size="24px" font-style="normal" font-weight="normal" text-decoration="none" x="200" y="150">UNREGISTERED</text><text fill="#eeeeee" stroke="none" font-family="Arial" font-size="24px" font-style="normal" font-weight="normal" text-decoration="none" x="200" y="180">UNREGISTERED</text><text fill="#eeeeee" stroke="none" font-family="Arial" font-size="24px" font-style="normal" font-weight="normal" text-decoration="none" x="200" y="210">UNREGISTERED</text><text fill="#eeeeee" stroke="none" font-family="Arial" font-size="24px" font-style="normal" font-weight="normal" text-decoration="none" x="200" y="240">UNREGISTERED</text><text fill="#eeeeee" stroke="none" font-family="Arial" font-size="24px" font-style="normal" font-weight="normal" text-decoration="none" x="200" y="270">UNREGISTERED</text><text fill="#eeeeee" stroke="none" font-family="Arial" font-size="24px" font-style="normal" font-weight="normal" text-decoration="none" x="200" y="300">UNREGISTERED</text><text fill="#eeeeee" stroke="none" font-family="Arial" font-size="24px" font-style="normal" font-weight="normal" text-decoration="none" x="200" y="330">UNREGISTERED</text><text fill="#eeeeee" stroke="none" font-family="Arial" font-size="24px" font-style="normal" font-weight="normal" text-decoration="none" x="200" y="360">UNREGISTERED</text><text fill="#eeeeee" stroke="none" font-family="Arial" font-size="24px" font-style="normal" font-weight="normal" text-decoration="none" x="200" y="390">UNREGISTERED</text><text fill="#eeeeee" stroke="none" font-family="Arial" font-size="24px" font-style="normal" font-weight="normal" text-decoration="none" x="200" y="420">UNREGISTERED</text><text fill="#eeeeee" stroke="none" font-family="Arial" font-size="24px" font-style="normal" font-weight="normal" text-decoration="none" x="200" y="450">UNREGISTERED</text><text fill="#eeeeee" stroke="none" font-family="Arial" font-size="24px" font-style="normal" font-weight="normal" text-decoration="none" x="200" y="480">UNREGISTERED</text><text fill="#eeeeee" stroke="none" font-family="Arial" font-size="24px" font-style="normal" font-weight="normal" text-decoration="none" x="200" y="510">UNREGISTERED</text><text fill="#eeeeee" stroke="none" font-family="Arial" font-size="24px" font-style="normal" font-weight="normal" text-decoration="none" x="200" y="540">UNREGISTERED</text><text fill="#eeeeee" stroke="none" font-family="Arial" font-size="24px" font-style="normal" font-weight="normal" text-decoration="none" x="200" y="570">UNREGISTERED</text><text fill="#eeeeee" stroke="none" font-family="Arial" font-size="24px" font-style="normal" font-weight="normal" text-decoration="none" x="400" y="0">UNREGISTERED</text><text fill="#eeeeee" stroke="none" font-family="Arial" font-size="24px" font-style="normal" font-weight="normal" text-decoration="none" x="400" y="30">UNREGISTERED</text><text fill="#eeeeee" stroke="none" font-family="Arial" font-size="24px" font-style="normal" font-weight="normal" text-decoration="none" x="400" y="60">UNREGISTERED</text><text fill="#eeeeee" stroke="none" font-family="Arial" font-size="24px" font-style="normal" font-weight="normal" text-decoration="none" x="400" y="90">UNREGISTERED</text><text fill="#eeeeee" stroke="none" font-family="Arial" font-size="24px" font-style="normal" font-weight="normal" text-decoration="none" x="400" y="120">UNREGISTERED</text><text fill="#eeeeee" stroke="none" font-family="Arial" font-size="24px" font-style="normal" font-weight="normal" text-decoration="none" x="400" y="150">UNREGISTERED</text><text fill="#eeeeee" stroke="none" font-family="Arial" font-size="24px" font-style="normal" font-weight="normal" text-decoration="none" x="400" y="180">UNREGISTERED</text><text fill="#eeeeee" stroke="none" font-family="Arial" font-size="24px" font-style="normal" font-weight="normal" text-decoration="none" x="400" y="210">UNREGISTERED</text><text fill="#eeeeee" stroke="none" font-family="Arial" font-size="24px" font-style="normal" font-weight="normal" text-decoration="none" x="400" y="240">UNREGISTERED</text><text fill="#eeeeee" stroke="none" font-family="Arial" font-size="24px" font-style="normal" font-weight="normal" text-decoration="none" x="400" y="270">UNREGISTERED</text><text fill="#eeeeee" stroke="none" font-family="Arial" font-size="24px" font-style="normal" font-weight="normal" text-decoration="none" x="400" y="300">UNREGISTERED</text><text fill="#eeeeee" stroke="none" font-family="Arial" font-size="24px" font-style="normal" font-weight="normal" text-decoration="none" x="400" y="330">UNREGISTERED</text><text fill="#eeeeee" stroke="none" font-family="Arial" font-size="24px" font-style="normal" font-weight="normal" text-decoration="none" x="400" y="360">UNREGISTERED</text><text fill="#eeeeee" stroke="none" font-family="Arial" font-size="24px" font-style="normal" font-weight="normal" text-decoration="none" x="400" y="390">UNREGISTERED</text><text fill="#eeeeee" stroke="none" font-family="Arial" font-size="24px" font-style="normal" font-weight="normal" text-decoration="none" x="400" y="420">UNREGISTERED</text><text fill="#eeeeee" stroke="none" font-family="Arial" font-size="24px" font-style="normal" font-weight="normal" text-decoration="none" x="400" y="450">UNREGISTERED</text><text fill="#eeeeee" stroke="none" font-family="Arial" font-size="24px" font-style="normal" font-weight="normal" text-decoration="none" x="400" y="480">UNREGISTERED</text><text fill="#eeeeee" stroke="none" font-family="Arial" font-size="24px" font-style="normal" font-weight="normal" text-decoration="none" x="400" y="510">UNREGISTERED</text><text fill="#eeeeee" stroke="none" font-family="Arial" font-size="24px" font-style="normal" font-weight="normal" text-decoration="none" x="400" y="540">UNREGISTERED</text><text fill="#eeeeee" stroke="none" font-family="Arial" font-size="24px" font-style="normal" font-weight="normal" text-decoration="none" x="400" y="570">UNREGISTERED</text><text fill="#eeeeee" stroke="none" font-family="Arial" font-size="24px" font-style="normal" font-weight="normal" text-decoration="none" x="600" y="0">UNREGISTERED</text><text fill="#eeeeee" stroke="none" font-family="Arial" font-size="24px" font-style="normal" font-weight="normal" text-decoration="none" x="600" y="30">UNREGISTERED</text><text fill="#eeeeee" stroke="none" font-family="Arial" font-size="24px" font-style="normal" font-weight="normal" text-decoration="none" x="600" y="60">UNREGISTERED</text><text fill="#eeeeee" stroke="none" font-family="Arial" font-size="24px" font-style="normal" font-weight="normal" text-decoration="none" x="600" y="90">UNREGISTERED</text><text fill="#eeeeee" stroke="none" font-family="Arial" font-size="24px" font-style="normal" font-weight="normal" text-decoration="none" x="600" y="120">UNREGISTERED</text><text fill="#eeeeee" stroke="none" font-family="Arial" font-size="24px" font-style="normal" font-weight="normal" text-decoration="none" x="600" y="150">UNREGISTERED</text><text fill="#eeeeee" stroke="none" font-family="Arial" font-size="24px" font-style="normal" font-weight="normal" text-decoration="none" x="600" y="180">UNREGISTERED</text><text fill="#eeeeee" stroke="none" font-family="Arial" font-size="24px" font-style="normal" font-weight="normal" text-decoration="none" x="600" y="210">UNREGISTERED</text><text fill="#eeeeee" stroke="none" font-family="Arial" font-size="24px" font-style="normal" font-weight="normal" text-decoration="none" x="600" y="240">UNREGISTERED</text><text fill="#eeeeee" stroke="none" font-family="Arial" font-size="24px" font-style="normal" font-weight="normal" text-decoration="none" x="600" y="270">UNREGISTERED</text><text fill="#eeeeee" stroke="none" font-family="Arial" font-size="24px" font-style="normal" font-weight="normal" text-decoration="none" x="600" y="300">UNREGISTERED</text><text fill="#eeeeee" stroke="none" font-family="Arial" font-size="24px" font-style="normal" font-weight="normal" text-decoration="none" x="600" y="330">UNREGISTERED</text><text fill="#eeeeee" stroke="none" font-family="Arial" font-size="24px" font-style="normal" font-weight="normal" text-decoration="none" x="600" y="360">UNREGISTERED</text><text fill="#eeeeee" stroke="none" font-family="Arial" font-size="24px" font-style="normal" font-weight="normal" text-decoration="none" x="600" y="390">UNREGISTERED</text><text fill="#eeeeee" stroke="none" font-family="Arial" font-size="24px" font-style="normal" font-weight="normal" text-decoration="none" x="600" y="420">UNREGISTERED</text><text fill="#eeeeee" stroke="none" font-family="Arial" font-size="24px" font-style="normal" font-weight="normal" text-decoration="none" x="600" y="450">UNREGISTERED</text><text fill="#eeeeee" stroke="none" font-family="Arial" font-size="24px" font-style="normal" font-weight="normal" text-decoration="none" x="600" y="480">UNREGISTERED</text><text fill="#eeeeee" stroke="none" font-family="Arial" font-size="24px" font-style="normal" font-weight="normal" text-decoration="none" x="600" y="510">UNREGISTERED</text><text fill="#eeeeee" stroke="none" font-family="Arial" font-size="24px" font-style="normal" font-weight="normal" text-decoration="none" x="600" y="540">UNREGISTERED</text><text fill="#eeeeee" stroke="none" font-family="Arial" font-size="24px" font-style="normal" font-weight="normal" text-decoration="none" x="600" y="570">UNREGISTERED</text><g transform="translate(-22,-46) scale(1,1)"><rect fill="#C0C0C0" stroke="none" x="159" y="63" width="552" height="560" opacity="0.2"/></g><g transform="translate(-22,-46) scale(1,1)"><rect fill="#ffffff" stroke="none" x="152" y="56" width="552" height="560"/></g><g transform="translate(-22,-46) scale(1,1)"><path fill="none" stroke="#000000" d="M 152 56 L 704 56 L 704 616 L 152 616 L 152 56 Z Z" stroke-miterlimit="10"/></g><g transform="translate(-22,-46) scale(1,1)"><g><path fill="none" stroke="none"/><text fill="#000000" stroke="none" font-family="Arial" font-size="13px" font-style="normal" font-weight="bold" text-decoration="none" x="400.5400390625" y="75.5">Bet&amp;Ruin</text></g></g><g transform="translate(-22,-46) scale(1,1)"><path fill="#ffffff" stroke="none" d="M 48.40935031960227 209.68 C 48.40935031960227 204.886167936 52.295192644547726 201 57.088623046875 201 C 61.882053449202274 201 65.76789577414773 204.886167936 65.76789577414773 209.68 C 65.76789577414773 214.47383206400002 61.882053449202274 218.36 57.088623046875 218.36 C 52.295192644547726 218.36 48.40935031960227 214.47383206400002 48.40935031960227 209.68 Z"/></g><g transform="translate(-22,-46) scale(1,1)"><path fill="none" stroke="#000000" d="M 48.40935031960227 209.68 C 48.40935031960227 204.886167936 52.295192644547726 201 57.088623046875 201 C 61.882053449202274 201 65.76789577414773 204.886167936 65.76789577414773 209.68 C 65.76789577414773 214.47383206400002 61.882053449202274 218.36 57.088623046875 218.36 C 52.295192644547726 218.36 48.40935031960227 214.47383206400002 48.40935031960227 209.68 Z" stroke-miterlimit="10"/></g><g transform="translate(-22,-46) scale(1,1)"><path fill="none" stroke="#000000" d="M 57.088623046875 218.36 L 57.088623046875 235.64" stroke-miterlimit="10"/></g><g transform="translate(-22,-46) scale(1,1)"><path fill="none" stroke="#000000" d="M 47.89880486505682 224.84 L 66.27844122869318 224.84" stroke-miterlimit="10"/></g><g transform="translate(-22,-46) scale(1,1)"><path fill="none" stroke="#000000" d="M 57.088623046875 235.64 L 44.324986683238635 253" stroke-miterlimit="10"/></g><g transform="translate(-22,-46) scale(1,1)"><path fill="none" stroke="#000000" d="M 57.088623046875 235.64 L 69.85225941051137 253" stroke-miterlimit="10"/></g><g transform="translate(-22,-46) scale(1,1)"><g><path fill="none" stroke="none"/><text fill="#000000" stroke="none" font-family="Arial" font-size="13px" font-style="normal" font-weight="bold" text-decoration="none" x="43.364990234375" y="273.5">User</text></g></g><g transform="translate(-22,-46) scale(1,1)"><path fill="#ffffff" stroke="none" d="M 48.40935031960227 345.68 C 48.40935031960227 340.886167936 52.295192644547726 337 57.088623046875 337 C 61.882053449202274 337 65.76789577414773 340.886167936 65.76789577414773 345.68 C 65.76789577414773 350.473832064 61.882053449202274 354.36 57.088623046875 354.36 C 52.295192644547726 354.36 48.40935031960227 350.473832064 48.40935031960227 345.68 Z"/></g><g transform="translate(-22,-46) scale(1,1)"><path fill="none" stroke="#000000" d="M 48.40935031960227 345.68 C 48.40935031960227 340.886167936 52.295192644547726 337 57.088623046875 337 C 61.882053449202274 337 65.76789577414773 340.886167936 65.76789577414773 345.68 C 65.76789577414773 350.473832064 61.882053449202274 354.36 57.088623046875 354.36 C 52.295192644547726 354.36 48.40935031960227 350.473832064 48.40935031960227 345.68 Z" stroke-miterlimit="10"/></g><g transform="translate(-22,-46) scale(1,1)"><path fill="none" stroke="#000000" d="M 57.088623046875 354.36 L 57.088623046875 371.64" stroke-miterlimit="10"/></g><g transform="translate(-22,-46) scale(1,1)"><path fill="none" stroke="#000000" d="M 47.89880486505682 360.84 L 66.27844122869318 360.84" stroke-miterlimit="10"/></g><g transform="translate(-22,-46) scale(1,1)"><path fill="none" stroke="#000000" d="M 57.088623046875 371.64 L 44.324986683238635 389" stroke-miterlimit="10"/></g><g transform="translate(-22,-46) scale(1,1)"><path fill="none" stroke="#000000" d="M 57.088623046875 371.64 L 69.85225941051137 389" stroke-miterlimit="10"/></g><g transform="translate(-22,-46) scale(1,1)"><g><path fill="none" stroke="none"/><text fill="#000000" stroke="none" font-family="Arial" font-size="13px" font-style="normal" font-weight="bold" text-decoration="none" x="38.66455078125" y="409.5">Admin</text></g></g><g transform="translate(-22,-46) scale(1,1)"><path fill="#C0C0C0" stroke="none" d="M 231 376 C 231 366.6111584 272.1897984 359 323 359 C 373.8102016 359 415 366.6111584 415 376 C 415 385.3888416 373.8102016 393 323 393 C 272.1897984 393 231 385.3888416 231 376 Z" opacity="0.2"/></g><g transform="translate(-22,-46) scale(1,1)"><path fill="#ffffff" stroke="none" d="M 224 369 C 224 359.6111584 265.1897984 352 316 352 C 366.8102016 352 408 359.6111584 408 369 C 408 378.3888416 366.8102016 386 316 386 C 265.1897984 386 224 378.3888416 224 369 Z"/></g><g transform="translate(-22,-46) scale(1,1)"><path fill="none" stroke="#000000" d="M 224 369 C 224 359.6111584 265.1897984 352 316 352 C 366.8102016 352 408 359.6111584 408 369 C 408 378.3888416 366.8102016 386 316 386 C 265.1897984 386 224 378.3888416 224 369 Z" stroke-miterlimit="10"/></g><g transform="translate(-22,-46) scale(1,1)"><g><path fill="none" stroke="none"/><text fill="#000000" stroke="none" font-family="Arial" font-size="13px" font-style="normal" font-weight="bold" text-decoration="none" x="274.08642578125" y="376">Login/Register</text></g></g><g transform="translate(-22,-46) scale(1,1)"><path fill="#C0C0C0" stroke="none" d="M 175 576 C 175 566.6111584 216.1897984 559 267 559 C 317.8102016 559 359 566.6111584 359 576 C 359 585.3888416 317.8102016 593 267 593 C 216.1897984 593 175 585.3888416 175 576 Z" opacity="0.2"/></g><g transform="translate(-22,-46) scale(1,1)"><path fill="#ffffff" stroke="none" d="M 168 569 C 168 559.6111584 209.1897984 552 260 552 C 310.8102016 552 352 559.6111584 352 569 C 352 578.3888416 310.8102016 586 260 586 C 209.1897984 586 168 578.3888416 168 569 Z"/></g><g transform="translate(-22,-46) scale(1,1)"><path fill="none" stroke="#000000" d="M 168 569 C 168 559.6111584 209.1897984 552 260 552 C 310.8102016 552 352 559.6111584 352 569 C 352 578.3888416 310.8102016 586 260 586 C 209.1897984 586 168 578.3888416 168 569 Z" stroke-miterlimit="10"/></g><g transform="translate(-22,-46) scale(1,1)"><g><path fill="none" stroke="none"/><text fill="#000000" stroke="none" font-family="Arial" font-size="13px" font-style="normal" font-weight="bold" text-decoration="none" x="213.747802734375" y="576">Placed bets info</text></g></g><g transform="translate(-22,-46) scale(1,1)"><path fill="#C0C0C0" stroke="none" d="M 255 136 C 255 126.6111584 292.8319344 119 339.5 119 C 386.1680656 119 424 126.6111584 424 136 C 424 145.3888416 386.1680656 153 339.5 153 C 292.8319344 153 255 145.3888416 255 136 Z" opacity="0.2"/></g><g transform="translate(-22,-46) scale(1,1)"><path fill="#ffffff" stroke="none" d="M 248 129 C 248 119.6111584 285.8319344 112 332.5 112 C 379.1680656 112 417 119.6111584 417 129 C 417 138.3888416 379.1680656 146 332.5 146 C 285.8319344 146 248 138.3888416 248 129 Z"/></g><g transform="translate(-22,-46) scale(1,1)"><path fill="none" stroke="#000000" d="M 248 129 C 248 119.6111584 285.8319344 112 332.5 112 C 379.1680656 112 417 119.6111584 417 129 C 417 138.3888416 379.1680656 146 332.5 146 C 285.8319344 146 248 138.3888416 248 129 Z" stroke-miterlimit="10"/></g><g transform="translate(-22,-46) scale(1,1)"><g><path fill="none" stroke="none"/><text fill="#000000" stroke="none" font-family="Arial" font-size="13px" font-style="normal" font-weight="bold" text-decoration="none" x="282.274169921875" y="136">Search questions</text></g></g><g transform="translate(-22,-46) scale(1,1)"><path fill="#C0C0C0" stroke="none" d="M 231 264 C 231 254.6111584 270.3989376 247 319 247 C 367.6010624 247 407 254.6111584 407 264 C 407 273.3888416 367.6010624 281 319 281 C 270.3989376 281 231 273.3888416 231 264 Z" opacity="0.2"/></g><g transform="translate(-22,-46) scale(1,1)"><path fill="#ffffff" stroke="none" d="M 224 257 C 224 247.6111584 263.3989376 240 312 240 C 360.6010624 240 400 247.6111584 400 257 C 400 266.3888416 360.6010624 274 312 274 C 263.3989376 274 224 266.3888416 224 257 Z"/></g><g transform="translate(-22,-46) scale(1,1)"><path fill="none" stroke="#000000" d="M 224 257 C 224 247.6111584 263.3989376 240 312 240 C 360.6010624 240 400 247.6111584 400 257 C 400 266.3888416 360.6010624 274 312 274 C 263.3989376 274 224 266.3888416 224 257 Z" stroke-miterlimit="10"/></g><g transform="translate(-22,-46) scale(1,1)"><g><path fill="none" stroke="none"/><text fill="#000000" stroke="none" font-family="Arial" font-size="13px" font-style="normal" font-weight="bold" text-decoration="none" x="284.898681640625" y="264">Place bet</text></g></g><g transform="translate(-22,-46) scale(1,1)"><path fill="none" stroke="#000000" d="M 83 229 L 287 147" stroke-miterlimit="10"/></g><g transform="translate(-22,-46) scale(1,1)"><path fill="none" stroke="#000000" d="M 83 252 L 280 351" stroke-miterlimit="10"/></g><g transform="translate(-22,-46) scale(1,1)"><path fill="none" stroke="#000000" d="M 83 374 L 223 371" stroke-miterlimit="10"/></g><g transform="translate(-22,-46) scale(1,1)"><path fill="#C0C0C0" stroke="none" d="M 487 240 C 487 230.6111584 526.3989376 223 575 223 C 623.6010624 223 663 230.6111584 663 240 C 663 249.3888416 623.6010624 257 575 257 C 526.3989376 257 487 249.3888416 487 240 Z" opacity="0.2"/></g><g transform="translate(-22,-46) scale(1,1)"><path fill="#ffffff" stroke="none" d="M 480 233 C 480 223.6111584 519.3989376 216 568 216 C 616.6010624 216 656 223.6111584 656 233 C 656 242.3888416 616.6010624 250 568 250 C 519.3989376 250 480 242.3888416 480 233 Z"/></g><g transform="translate(-22,-46) scale(1,1)"><path fill="none" stroke="#000000" d="M 480 233 C 480 223.6111584 519.3989376 216 568 216 C 616.6010624 216 656 223.6111584 656 233 C 656 242.3888416 616.6010624 250 568 250 C 519.3989376 250 480 242.3888416 480 233 Z" stroke-miterlimit="10"/></g><g transform="translate(-22,-46) scale(1,1)"><g><path fill="none" stroke="none"/><text fill="#000000" stroke="none" font-family="Arial" font-size="13px" font-style="normal" font-weight="bold" text-decoration="none" x="522.109619140625" y="240">Create question</text></g></g><g transform="translate(-22,-46) scale(1,1)"><path fill="none" stroke="#000000" d="M 323 146 L 323 240" stroke-miterlimit="10" stroke-dasharray="3"/></g><g transform="translate(-22,-46) scale(1,1)"><path fill="none" stroke="#000000" d="M 318.790482243984 229.83732514237585 L 323 240 L 327.209517756016 229.83732514237585" stroke-miterlimit="10"/></g><g transform="translate(-22,-46) scale(1,1)"><g><path fill="none" stroke="none"/><text fill="#000000" stroke="none" font-family="Arial" font-size="13px" font-style="normal" font-weight="normal" text-decoration="none" x="226.2958984375" y="199.5">+&lt;Implements&gt;</text></g></g><g transform="translate(-22,-46) scale(1,1)"><path fill="#C0C0C0" stroke="none" d="M 199 467 C 199 455.954304 229.4446336 447 267 447 C 304.5553664 447 335 455.954304 335 467 C 335 478.045696 304.5553664 487 267 487 C 229.4446336 487 199 478.045696 199 467 Z" opacity="0.2"/></g><g transform="translate(-22,-46) scale(1,1)"><path fill="#ffffff" stroke="none" d="M 192 460 C 192 448.954304 222.4446336 440 260 440 C 297.5553664 440 328 448.954304 328 460 C 328 471.045696 297.5553664 480 260 480 C 222.4446336 480 192 471.045696 192 460 Z"/></g><g transform="translate(-22,-46) scale(1,1)"><path fill="none" stroke="#000000" d="M 192 460 C 192 448.954304 222.4446336 440 260 440 C 297.5553664 440 328 448.954304 328 460 C 328 471.045696 297.5553664 480 260 480 C 222.4446336 480 192 471.045696 192 460 Z" stroke-miterlimit="10"/></g><g transform="translate(-22,-46) scale(1,1)"><g><path fill="none" stroke="none"/><text fill="#000000" stroke="none" font-family="Arial" font-size="13px" font-style="normal" font-weight="bold" text-decoration="none" x="225.798828125" y="467">View Profile</text></g></g><g transform="translate(-22,-46) scale(1,1)"><path fill="none" stroke="#000000" d="M 305 387 L 273 439" stroke-miterlimit="10"/></g><g transform="translate(-22,-46) scale(1,1)"><path fill="none" stroke="#000000" d="M 274.741160924518 428.13867601832396 L 273 439 L 281.91130253697094 432.5510708567565" stroke-miterlimit="10"/></g><g transform="translate(-22,-46) scale(1,1)"><path fill="#C0C0C0" stroke="none" d="M 455 328 C 455 318.6111584 495.5182256 311 545.5 311 C 595.4817744 311 636 318.6111584 636 328 C 636 337.3888416 595.4817744 345 545.5 345 C 495.5182256 345 455 337.3888416 455 328 Z" opacity="0.2"/></g><g transform="translate(-22,-46) scale(1,1)"><path fill="#ffffff" stroke="none" d="M 448 321 C 448 311.6111584 488.5182256 304 538.5 304 C 588.4817744 304 629 311.6111584 629 321 C 629 330.3888416 588.4817744 338 538.5 338 C 488.5182256 338 448 330.3888416 448 321 Z"/></g><g transform="translate(-22,-46) scale(1,1)"><path fill="none" stroke="#000000" d="M 448 321 C 448 311.6111584 488.5182256 304 538.5 304 C 588.4817744 304 629 311.6111584 629 321 C 629 330.3888416 588.4817744 338 538.5 338 C 488.5182256 338 448 330.3888416 448 321 Z" stroke-miterlimit="10"/></g><g transform="translate(-22,-46) scale(1,1)"><g><path fill="none" stroke="none"/><text fill="#000000" stroke="none" font-family="Arial" font-size="13px" font-style="normal" font-weight="bold" text-decoration="none" x="482.7421875" y="328">AddMoneyToWallet</text></g></g><g transform="translate(-22,-46) scale(1,1)"><path fill="#ffffff" stroke="none" d="M 768.4093503196023 297.68 C 768.4093503196023 292.886167936 772.2951926445477 289 777.088623046875 289 C 781.8820534492023 289 785.7678957741477 292.886167936 785.7678957741477 297.68 C 785.7678957741477 302.473832064 781.8820534492023 306.36 777.088623046875 306.36 C 772.2951926445477 306.36 768.4093503196023 302.473832064 768.4093503196023 297.68 Z"/></g><g transform="translate(-22,-46) scale(1,1)"><path fill="none" stroke="#000000" d="M 768.4093503196023 297.68 C 768.4093503196023 292.886167936 772.2951926445477 289 777.088623046875 289 C 781.8820534492023 289 785.7678957741477 292.886167936 785.7678957741477 297.68 C 785.7678957741477 302.473832064 781.8820534492023 306.36 777.088623046875 306.36 C 772.2951926445477 306.36 768.4093503196023 302.473832064 768.4093503196023 297.68 Z" stroke-miterlimit="10"/></g><g transform="translate(-22,-46) scale(1,1)"><path fill="none" stroke="#000000" d="M 777.088623046875 306.36 L 777.088623046875 323.64" stroke-miterlimit="10"/></g><g transform="translate(-22,-46) scale(1,1)"><path fill="none" stroke="#000000" d="M 767.8988048650568 312.84 L 786.2784412286932 312.84" stroke-miterlimit="10"/></g><g transform="translate(-22,-46) scale(1,1)"><path fill="none" stroke="#000000" d="M 777.088623046875 323.64 L 764.3249866832386 341" stroke-miterlimit="10"/></g><g transform="translate(-22,-46) scale(1,1)"><path fill="none" stroke="#000000" d="M 777.088623046875 323.64 L 789.8522594105114 341" stroke-miterlimit="10"/></g><g transform="translate(-22,-46) scale(1,1)"><g><path fill="none" stroke="none"/><text fill="#000000" stroke="none" font-family="Arial" font-size="13px" font-style="normal" font-weight="bold" text-decoration="none" x="759.270751953125" y="361.5">Wallet</text></g></g><g transform="translate(-22,-46) scale(1,1)"><path fill="none" stroke="#000000" d="M 751 323 L 401 270" stroke-miterlimit="10"/></g><g transform="translate(-22,-46) scale(1,1)"><path fill="#C0C0C0" stroke="none" d="M 479 576 C 479 566.6111584 504.5197664 559 536 559 C 567.4802336 559 593 566.6111584 593 576 C 593 585.3888416 567.4802336 593 536 593 C 504.5197664 593 479 585.3888416 479 576 Z" opacity="0.2"/></g><g transform="translate(-22,-46) scale(1,1)"><path fill="#ffffff" stroke="none" d="M 472 569 C 472 559.6111584 497.5197664 552 529 552 C 560.4802336 552 586 559.6111584 586 569 C 586 578.3888416 560.4802336 586 529 586 C 497.5197664 586 472 578.3888416 472 569 Z"/></g><g transform="translate(-22,-46) scale(1,1)"><path fill="none" stroke="#000000" d="M 472 569 C 472 559.6111584 497.5197664 552 529 552 C 560.4802336 552 586 559.6111584 586 569 C 586 578.3888416 560.4802336 586 529 586 C 497.5197664 586 472 578.3888416 472 569 Z" stroke-miterlimit="10"/></g><g transform="translate(-22,-46) scale(1,1)"><g><path fill="none" stroke="none"/><text fill="#000000" stroke="none" font-family="Arial" font-size="13px" font-style="normal" font-weight="bold" text-decoration="none" x="499.010498046875" y="576">CancelBet</text></g></g><g transform="translate(-22,-46) scale(1,1)"><path fill="none" stroke="#000000" d="M 751 352 L 547 551" stroke-miterlimit="10"/></g><g transform="translate(-22,-46) scale(1,1)"><path fill="none" stroke="#000000" d="M 751 326 L 630 323" stroke-miterlimit="10"/></g><g transform="translate(-22,-46) scale(1,1)"><path fill="none" stroke="#000000" d="M 260 481 L 260 551" stroke-miterlimit="10"/></g><g transform="translate(-22,-46) scale(1,1)"><path fill="none" stroke="#000000" d="M 255.790482243984 540.8373251423759 L 260 551 L 264.209517756016 540.8373251423759" stroke-miterlimit="10"/></g><g transform="translate(-22,-46) scale(1,1)"><path fill="none" stroke="#000000" d="M 315 351 L 313 275" stroke-miterlimit="10"/></g><g transform="translate(-22,-46) scale(1,1)"><path fill="none" stroke="#000000" d="M 317.4754071800324 285.0484193071803 L 313 275 L 309.0592853332588 285.2698961978849" stroke-miterlimit="10"/></g><g transform="translate(-22,-46) scale(1,1)"><path fill="none" stroke="#000000" d="M 349 351 L 535 251" stroke-miterlimit="10"/></g><g transform="translate(-22,-46) scale(1,1)"><path fill="none" stroke="#000000" d="M 528.04232362846 259.5200199242088 L 535 251 L 524.0556159921301 252.1047437206352" stroke-miterlimit="10"/></g><g transform="translate(-22,-46) scale(1,1)"><path fill="#C0C0C0" stroke="none" d="M 383 472 C 383 462.6111584 438.7405424 455 507.5 455 C 576.2594576 455 632 462.6111584 632 472 C 632 481.3888416 576.2594576 489 507.5 489 C 438.7405424 489 383 481.3888416 383 472 Z" opacity="0.2"/></g><g transform="translate(-22,-46) scale(1,1)"><path fill="#ffffff" stroke="none" d="M 376 465 C 376 455.6111584 431.7405424 448 500.5 448 C 569.2594576 448 625 455.6111584 625 465 C 625 474.3888416 569.2594576 482 500.5 482 C 431.7405424 482 376 474.3888416 376 465 Z"/></g><g transform="translate(-22,-46) scale(1,1)"><path fill="none" stroke="#000000" d="M 376 465 C 376 455.6111584 431.7405424 448 500.5 448 C 569.2594576 448 625 455.6111584 625 465 C 625 474.3888416 569.2594576 482 500.5 482 C 431.7405424 482 376 474.3888416 376 465 Z" stroke-miterlimit="10"/></g><g transform="translate(-22,-46) scale(1,1)"><g><path fill="none" stroke="none"/><text fill="#000000" stroke="none" font-family="Arial" font-size="13px" font-style="normal" font-weight="bold" text-decoration="none" x="421.373291015625" y="472">ChangeUsenamePassword</text></g></g><g transform="translate(-22,-46) scale(1,1)"><path fill="none" stroke="#000000" d="M 373 147 L 527 215" stroke-miterlimit="10" stroke-dasharray="3"/></g><g transform="translate(-22,-46) scale(1,1)"><path fill="none" stroke="#000000" d="M 516.0029379540289 214.74578285450863 L 527 215 L 519.4036615216354 207.04414418669379" stroke-miterlimit="10"/></g><g transform="translate(-22,-46) scale(1,1)"><path fill="none" stroke="#000000" d="M 329 461 L 375 462" stroke-miterlimit="10"/></g><g transform="translate(-22,-46) scale(1,1)"><path fill="none" stroke="#000000" d="M 364.74823604017183 465.9876478921751 L 375 462 L 364.93121531934037 457.57060105042297" stroke-miterlimit="10"/></g><g transform="translate(-22,-46) scale(1,1)"><path fill="none" stroke="#000000" d="M 353 569 L 471 569" stroke-miterlimit="10"/></g><g transform="translate(-22,-46) scale(1,1)"><path fill="none" stroke="#000000" d="M 460.83732514237585 573.209517756016 L 471 569 L 460.83732514237585 564.790482243984" stroke-miterlimit="10"/></g><g transform="translate(-22,-46) scale(1,1)"><path fill="#C0C0C0" stroke="none" d="M 487 408 C 487 398.6111584 509.6096176 391 537.5 391 C 565.3903824 391 588 398.6111584 588 408 C 588 417.3888416 565.3903824 425 537.5 425 C 509.6096176 425 487 417.3888416 487 408 Z" opacity="0.2"/></g><g transform="translate(-22,-46) scale(1,1)"><path fill="#ffffff" stroke="none" d="M 480 401 C 480 391.6111584 502.6096176 384 530.5 384 C 558.3903824 384 581 391.6111584 581 401 C 581 410.3888416 558.3903824 418 530.5 418 C 502.6096176 418 480 410.3888416 480 401 Z"/></g><g transform="translate(-22,-46) scale(1,1)"><path fill="none" stroke="#000000" d="M 480 401 C 480 391.6111584 502.6096176 384 530.5 384 C 558.3903824 384 581 391.6111584 581 401 C 581 410.3888416 558.3903824 418 530.5 418 C 502.6096176 418 480 410.3888416 480 401 Z" stroke-miterlimit="10"/></g><g transform="translate(-22,-46) scale(1,1)"><g><path fill="none" stroke="none"/><text fill="#000000" stroke="none" font-family="Arial" font-size="13px" font-style="normal" font-weight="bold" text-decoration="none" x="509.17822265625" y="408">LogOut</text></g></g><g transform="translate(-22,-46) scale(1,1)"><path fill="none" stroke="#000000" d="M 409 383 L 479 393" stroke-miterlimit="10"/></g><g transform="translate(-22,-46) scale(1,1)"><path fill="none" stroke="#000000" d="M 468.3441494602911 395.7299907097617 L 479 393 L 469.53478088061274 387.39557076751026" stroke-miterlimit="10"/></g><g transform="translate(-22,-46) scale(1,1)"><path fill="none" stroke="#000000" d="M 399 351 L 455 339" stroke-miterlimit="10"/></g><g transform="translate(-22,-46) scale(1,1)"><path fill="none" stroke="#000000" d="M 445.9449284101458 345.2454526259203 L 455 339 L 444.18089557131685 337.013299378052" stroke-miterlimit="10"/></g></g></svg>