<svg version="1.1" xmlns="http://www.w3.org/2000/svg" xmlns:xlink="http://www.w3.org/1999/xlink" width="396" height="348"><defs/><g><text fill="#eeeeee" stroke="none" font-family="Arial" font-size="24px" font-style="normal" font-weight="normal" text-decoration="none" x="0" y="0">UNREGISTERED</text><text fill="#eeeeee" stroke="none" font-family="Arial" font-size="24px" font-style="normal" font-weight="normal" text-decoration="none" x="0" y="30">UNREGISTERED</text><text fill="#eeeeee" stroke="none" font-family="Arial" font-size="24px" font-style="normal" font-weight="normal" text-decoration="none" x="0" y="60">UNREGISTERED</text><text fill="#eeeeee" stroke="none" font-family="Arial" font-size="24px" font-style="normal" font-weight="normal" text-decoration="none" x="0" y="90">UNREGISTERED</text><text fill="#eeeeee" stroke="none" font-family="Arial" font-size="24px" font-style="normal" font-weight="normal" text-decoration="none" x="0" y="120">UNREGISTERED</text><text fill="#eeeeee" stroke="none" font-family="Arial" font-size="24px" font-style="normal" font-weight="normal" text-decoration="none" x="0" y="150">UNREGISTERED</text><text fill="#eeeeee" stroke="none" font-family="Arial" font-size="24px" font-style="normal" font-weight="normal" text-decoration="none" x="0" y="180">UNREGISTERED</text><text fill="#eeeeee" stroke="none" font-family="Arial" font-size="24px" font-style="normal" font-weight="normal" text-decoration="none" x="0" y="210">UNREGISTERED</text><text fill="#eeeeee" stroke="none" font-family="Arial" font-size="24px" font-style="normal" font-weight="normal" text-decoration="none" x="0" y="240">UNREGISTERED</text><text fill="#eeeeee" stroke="none" font-family="Arial" font-size="24px" font-style="normal" font-weight="normal" text-decoration="none" x="0" y="270">UNREGISTERED</text><text fill="#eeeeee" stroke="none" font-family="Arial" font-size="24px" font-style="normal" font-weight="normal" text-decoration="none" x="0" y="300">UNREGISTERED</text><text fill="#eeeeee" stroke="none" font-family="Arial" font-size="24px" font-style="normal" font-weight="normal" text-decoration="none" x="0" y="330">UNREGISTERED</text><text fill="#eeeeee" stroke="none" font-family="Arial" font-size="24px" font-style="normal" font-weight="normal" text-decoration="none" x="200" y="0">UNREGISTERED</text><text fill="#eeeeee" stroke="none" font-family="Arial" font-size="24px" font-style="normal" font-weight="normal" text-decoration="none" x="200" y="30">UNREGISTERED</text><text fill="#eeeeee" stroke="none" font-family="Arial" font-size="24px" font-style="normal" font-weight="normal" text-decoration="none" x="200" y="60">UNREGISTERED</text><text fill="#eeeeee" stroke="none" font-family="Arial" font-size="24px" font-style="normal" font-weight="normal" text-decoration="none" x="200" y="90">UNREGISTERED</text><text fill="#eeeeee" stroke="none" font-family="Arial" font-size="24px" font-style="normal" font-weight="normal" text-decoration="none" x="200" y="120">UNREGISTERED</text><text fill="#eeeeee" stroke="none" font-family="Arial" font-size="24px" font-style="normal" font-weight="normal" text-decoration="none" x="200" y="150">UNREGISTERED</text><text fill="#eeeeee" stroke="none" font-family="Arial" font-size="24px" font-style="normal" font-weight="normal" text-decoration="none" x="200" y="180">UNREGISTERED</text><text fill="#eeeeee" stroke="none" font-family="Arial" font-size="24px" font-style="normal" font-weight="normal" text-decoration="none" x="200" y="210">UNREGISTERED</text><text fill="#eeeeee" stroke="none" font-family="Arial" font-size="24px" font-style="normal" font-weight="normal" text-decoration="none" x="200" y="240">UNREGISTERED</text><text fill="#eeeeee" stroke="none" font-family="Arial" font-size="24px" font-style="normal" font-weight="normal" text-decoration="none" x="200" y="270">UNREGISTERED</text><text fill="#eeeeee" stroke="none" font-family="Arial" font-size="24px" font-style="normal" font-weight="normal" text-decoration="none" x="200" y="300">UNREGISTERED</text><text fill="#eeeeee" stroke="none" font-family="Arial" font-size="24px" font-style="normal" font-weight="normal" text-decoration="none" x="200" y="330">UNREGISTERED</text><g transform="translate(-70,-182) scale(1,1)"><rect fill="#C0C0C0" stroke="none" x="87" y="199" width="104" height="48" opacity="0.2"/></g><g transform="translate(-70,-182) scale(1,1)"><rect fill="#ffffff" stroke="none" x="80" y="192" width="104" height="48"/></g><g transform="translate(-70,-182) scale(1,1)"><path fill="none" stroke="#000000" d="M 80 192 L 184 192 L 184 240 L 80 240 L 80 192 Z Z" stroke-miterlimit="10"/></g><g transform="translate(-70,-182) scale(1,1)"><g><path fill="none" stroke="none"/><text fill="#000000" stroke="none" font-family="Arial" font-size="13px" font-style="normal" font-weight="bold" text-decoration="none" x="115.378662109375" y="211.5">Event</text></g></g><g transform="translate(-70,-182) scale(1,1)"><g><path fill="none" stroke="none"/><text fill="#000000" stroke="none" font-family="Arial" font-size="13px" font-style="normal" font-weight="normal" text-decoration="none" x="91.54638671875" y="226.5">(from domain)</text></g></g><g transform="translate(-70,-182) scale(1,1)"><rect fill="#C0C0C0" stroke="none" x="359" y="199" width="104" height="48" opacity="0.2"/></g><g transform="translate(-70,-182) scale(1,1)"><rect fill="#ffffff" stroke="none" x="352" y="192" width="104" height="48"/></g><g transform="translate(-70,-182) scale(1,1)"><path fill="none" stroke="#000000" d="M 352 192 L 456 192 L 456 240 L 352 240 L 352 192 Z Z" stroke-miterlimit="10"/></g><g transform="translate(-70,-182) scale(1,1)"><g><path fill="none" stroke="none"/><text fill="#000000" stroke="none" font-family="Arial" font-size="13px" font-style="normal" font-weight="bold" text-decoration="none" x="377.984130859375" y="211.5">Question</text></g></g><g transform="translate(-70,-182) scale(1,1)"><g><path fill="none" stroke="none"/><text fill="#000000" stroke="none" font-family="Arial" font-size="13px" font-style="normal" font-weight="normal" text-decoration="none" x="363.54638671875" y="226.5">(from domain)</text></g></g><g transform="translate(-70,-182) scale(1,1)"><path fill="none" stroke="#000000" d="M 351 216 L 185 216" stroke-miterlimit="10"/></g><g transform="translate(-70,-182) scale(1,1)"><path fill="#000000" stroke="none" d="M 195.16267485762415 211.790482243984 L 185 216 L 195.16267485762415 220.209517756016 L 207 216"/></g><g transform="translate(-70,-182) scale(1,1)"><path fill="none" stroke="#000000" d="M 195.16267485762415 211.790482243984 L 185 216 L 195.16267485762415 220.209517756016 L 207 216 L 195.16267485762415 211.790482243984" stroke-miterlimit="10"/></g><g transform="translate(-70,-182) scale(1,1)"><g><path fill="none" stroke="none"/><text fill="#000000" stroke="none" font-family="Arial" font-size="13px" font-style="normal" font-weight="normal" text-decoration="none" x="319.58544921875" y="209.5">0..*</text></g></g><g transform="translate(-70,-182) scale(1,1)"><g><path fill="none" stroke="none"/><text fill="#000000" stroke="none" font-family="Arial" font-size="13px" font-style="normal" font-weight="normal" text-decoration="none" x="202.5" y="209.5">1</text></g></g><g transform="translate(-70,-182) scale(1,1)"><rect fill="#C0C0C0" stroke="none" x="87" y="351" width="104" height="48" opacity="0.2"/></g><g transform="translate(-70,-182) scale(1,1)"><rect fill="#ffffff" stroke="none" x="80" y="344" width="104" height="48"/></g><g transform="translate(-70,-182) scale(1,1)"><path fill="none" stroke="#000000" d="M 80 344 L 184 344 L 184 392 L 80 392 L 80 344 Z Z" stroke-miterlimit="10"/></g><g transform="translate(-70,-182) scale(1,1)"><g><path fill="none" stroke="none"/><text fill="#000000" stroke="none" font-family="Arial" font-size="13px" font-style="normal" font-weight="bold" text-decoration="none" x="118.2763671875" y="363.5">User</text></g></g><g transform="translate(-70,-182) scale(1,1)"><g><path fill="none" stroke="none"/><text fill="#000000" stroke="none" font-family="Arial" font-size="13px" font-style="normal" font-weight="normal" text-decoration="none" x="91.54638671875" y="378.5">(from domain)</text></g></g><g transform="translate(-70,-182) scale(1,1)"><rect fill="#C0C0C0" stroke="none" x="359" y="351" width="104" height="48" opacity="0.2"/></g><g transform="translate(-70,-182) scale(1,1)"><rect fill="#ffffff" stroke="none" x="352" y="344" width="104" height="48"/></g><g transform="translate(-70,-182) scale(1,1)"><path fill="none" stroke="#000000" d="M 352 344 L 456 344 L 456 392 L 352 392 L 352 344 Z Z" stroke-miterlimit="10"/></g><g transform="translate(-70,-182) scale(1,1)"><g><path fill="none" stroke="none"/><text fill="#000000" stroke="none" font-family="Arial" font-size="13px" font-style="normal" font-weight="bold" text-decoration="none" x="394.24365234375" y="363.5">Bet</text></g></g><g transform="translate(-70,-182) scale(1,1)"><g><path fill="none" stroke="none"/><text fill="#000000" stroke="none" font-family="Arial" font-size="13px" font-style="normal" font-weight="normal" text-decoration="none" x="363.54638671875" y="378.5">(from domain)</text></g></g><g transform="translate(-70,-182) scale(1,1)"><rect fill="#C0C0C0" stroke="none" x="87" y="479" width="102" height="48" opacity="0.2"/></g><g transform="translate(-70,-182) scale(1,1)"><rect fill="#ffffff" stroke="none" x="80" y="472" width="102" height="48"/></g><g transform="translate(-70,-182) scale(1,1)"><path fill="none" stroke="#000000" d="M 80 472 L 182 472 L 182 520 L 80 520 L 80 472 Z Z" stroke-miterlimit="10"/></g><g transform="translate(-70,-182) scale(1,1)"><g><path fill="none" stroke="none"/><text fill="#000000" stroke="none" font-family="Arial" font-size="13px" font-style="normal" font-weight="bold" text-decoration="none" x="113.18212890625" y="491.5">Wallet</text></g></g><g transform="translate(-70,-182) scale(1,1)"><g><path fill="none" stroke="none"/><text fill="#000000" stroke="none" font-family="Arial" font-size="13px" font-style="normal" font-weight="normal" text-decoration="none" x="90.54638671875" y="506.5">(from domain)</text></g></g><g transform="translate(-70,-182) scale(1,1)"><path fill="none" stroke="#000000" d="M 351 368 L 185 368" stroke-miterlimit="10"/></g><g transform="translate(-70,-182) scale(1,1)"><path fill="#000000" stroke="none" d="M 195.16267485762415 363.790482243984 L 185 368 L 195.16267485762415 372.209517756016 L 207 368"/></g><g transform="translate(-70,-182) scale(1,1)"><path fill="none" stroke="#000000" d="M 195.16267485762415 363.790482243984 L 185 368 L 195.16267485762415 372.209517756016 L 207 368 L 195.16267485762415 363.790482243984" stroke-miterlimit="10"/></g><g transform="translate(-70,-182) scale(1,1)"><g><path fill="none" stroke="none"/><text fill="#000000" stroke="none" font-family="Arial" font-size="13px" font-style="normal" font-weight="normal" text-decoration="none" x="319.5" y="361.5">0..*</text></g></g><g transform="translate(-70,-182) scale(1,1)"><g><path fill="none" stroke="none"/><text fill="#000000" stroke="none" font-family="Arial" font-size="13px" font-style="normal" font-weight="normal" text-decoration="none" x="202.5" y="361.5">1</text></g></g><g transform="translate(-70,-182) scale(1,1)"><path fill="none" stroke="#000000" d="M 404 343 L 404 241" stroke-miterlimit="10" stroke-dasharray="3"/></g><g transform="translate(-70,-182) scale(1,1)"><path fill="none" stroke="#000000" d="M 408.209517756016 251.16267485762415 L 404 241 L 399.790482243984 251.16267485762415" stroke-miterlimit="10"/></g><g transform="translate(-70,-182) scale(1,1)"><path fill="none" stroke="#000000" d="M 132 393 L 131 471" stroke-miterlimit="10" stroke-dasharray="3"/></g><g transform="translate(-70,-182) scale(1,1)"><path fill="none" stroke="#000000" d="M 126.92110814816282 460.7841964945964 L 131 471 L 135.33945184577954 460.8921239778992" stroke-miterlimit="10"/></g></g></svg>